<svg width="25" height="25" viewBox="0 0 25 25" fill="none" xmlns="http://www.w3.org/2000/svg">
<path d="M12.5 24.9999C14.2188 24.9999 15.625 23.8558 15.625 22.4575H9.375C9.375 23.8558 10.7812 24.9999 12.5 24.9999Z" fill="#393991"/>
<path d="M23.4375 19.0678H21.875V10.1695C21.875 6.62288 18.8906 3.63559 14.8438 2.79661V1.90678C14.8438 0.851695 13.7969 0 12.5 0C11.2031 0 10.1562 0.851695 10.1562 1.90678V2.79661C6.10938 3.63559 3.125 6.62288 3.125 10.1695V19.0678H1.5625C0.703125 19.0678 0 19.6398 0 20.339C0 21.0381 0.703125 21.6102 1.5625 21.6102H23.4375C24.2969 21.6102 25 21.0381 25 20.339C25 19.6398 24.2969 19.0678 23.4375 19.0678ZM15.625 13.983H14.0625V15.2542C14.0625 15.9534 13.3594 16.5254 12.5 16.5254C11.6406 16.5254 10.9375 15.9534 10.9375 15.2542V13.983H9.375C8.51562 13.983 7.8125 13.411 7.8125 12.7119C7.8125 12.0127 8.51562 11.4407 9.375 11.4407H10.9375V10.1695C10.9375 9.47034 11.6406 8.8983 12.5 8.8983C13.3594 8.8983 14.0625 9.47034 14.0625 10.1695V11.4407H15.625C16.4844 11.4407 17.1875 12.0127 17.1875 12.7119C17.1875 13.411 16.4844 13.983 15.625 13.983Z" fill="#393991"/>
</svg>
